<svg width="53" height="53" viewBox="0 0 53 53" fill="none" xmlns="http://www.w3.org/2000/svg">
<rect width="53" height="53" rx="12" fill="#242938"/>
<path d="M20.9297 47.3281C24.8344 47.3281 27.9844 44.1781 27.9844 40.2734V33.2188H20.9297C17.025 33.2188 13.875 36.3687 13.875 40.2734C13.875 44.1781 17.025 47.3281 20.9297 47.3281Z" fill="#0ACF83"/>
<path d="M13.875 26.1641C13.875 22.2594 17.025 19.1094 20.9297 19.1094H27.9844V33.2188H20.9297C17.025 33.2188 13.875 30.0688 13.875 26.1641Z" fill="#A259FF"/>
<path d="M13.875 12.0547C13.875 8.15 17.025 5 20.9297 5H27.9844V19.1094H20.9297C17.025 19.1094 13.875 15.9594 13.875 12.0547Z" fill="#F24E1E"/>
<path d="M27.9844 5H35.0391C38.9438 5 42.0938 8.15 42.0938 12.0547C42.0938 15.9594 38.9438 19.1094 35.0391 19.1094H27.9844V5Z" fill="#FF7262"/>
<path d="M42.0938 26.1641C42.0938 30.0688 38.9438 33.2188 35.0391 33.2188C31.1344 33.2188 27.9844 30.0688 27.9844 26.1641C27.9844 22.2594 31.1344 19.1094 35.0391 19.1094C38.9438 19.1094 42.0938 22.2594 42.0938 26.1641Z" fill="#1ABCFE"/>
</svg>
