<svg width="53" height="53" viewBox="0 0 53 53" fill="none" xmlns="http://www.w3.org/2000/svg">
<rect x="3.5" y="3.5" width="46" height="46" rx="8.5" fill="#323330"/>
<rect x="3.5" y="3.5" width="46" height="46" rx="8.5" stroke="#F0DB4F" stroke-width="7"/>
<path d="M6.65625 5.32812V46.3438H47.6719V5.32812H6.65625ZM28.3515 40.2777C27.7462 41.5078 26.5905 42.316 25.2514 42.7062C23.1938 43.1787 21.2257 42.9093 19.7616 42.0305C18.7818 41.4294 18.0166 40.5041 17.4972 39.438L20.6209 37.5251C20.6482 37.5365 20.7302 37.6849 20.8398 37.8765C21.2381 38.5439 21.5817 39.0164 22.257 39.3481C22.9204 39.5745 24.377 39.7192 24.9394 38.5518C25.2829 37.9579 25.1737 36.0488 25.1737 33.9367C25.1733 30.6177 25.1887 27.3125 25.1887 24.0312H29.0308C29.0308 27.6406 29.0505 31.059 29.0308 34.5811C29.039 36.7402 29.2263 38.665 28.3515 40.2777ZM44.2899 39.1923C42.9544 43.7604 35.5086 43.9087 32.5332 40.8906C31.9045 40.1802 31.5104 39.8091 31.1354 38.9892C32.7166 38.0796 32.7166 38.0796 34.2552 37.1894C35.0909 38.474 35.8636 39.1805 37.2539 39.4695C39.14 39.6999 41.0375 39.0518 40.6119 37.0486C40.1745 35.4126 36.7499 35.0146 34.4192 33.265C32.0531 31.6759 31.4986 27.8145 33.4431 25.6082C34.0911 24.7922 35.1962 24.1832 36.3558 23.8905L37.566 23.734C39.8894 23.687 41.3417 24.3006 42.4078 25.4911C42.7044 25.7916 42.9465 26.1158 43.3994 26.8183C42.1617 27.6072 42.1656 27.5996 40.3927 28.7474C40.0141 27.9317 39.3857 27.4198 38.7216 27.1973C37.6906 26.885 36.3906 27.2246 36.1209 28.3139C36.0274 28.6496 36.0467 28.962 36.1954 29.5165C36.6131 30.4691 38.0148 30.8832 39.2722 31.461C42.8918 32.929 44.114 34.503 44.4146 36.3766C44.704 37.9897 44.3447 39.0361 44.2899 39.1923Z" fill="#F0DB4F"/>
</svg>
