<svg width="53" height="53" viewBox="0 0 53 53" fill="none" xmlns="http://www.w3.org/2000/svg">
<rect width="53" height="53" rx="12" fill="#242938"/>
<path d="M27 29.7408C29.0659 29.7408 30.7406 28.066 30.7406 26.0001C30.7406 23.9343 29.0659 22.2595 27 22.2595C24.9341 22.2595 23.2593 23.9343 23.2593 26.0001C23.2593 28.066 24.9341 29.7408 27 29.7408Z" fill="#61DAFB"/>
<path d="M41.2078 19.8314C40.4859 19.5689 39.7312 19.3064 38.9437 19.0767C39.1406 18.2892 39.3047 17.5017 39.4359 16.747C40.125 12.4158 39.3703 9.36421 37.2703 8.18296C36.6469 7.82202 35.9578 7.65796 35.1703 7.65796C32.8734 7.65796 29.9531 9.36421 27 12.2189C24.0469 9.36421 21.1265 7.65796 18.8297 7.65796C18.0422 7.65796 17.3531 7.82202 16.7297 8.18296C14.6297 9.39702 13.875 12.4486 14.564 16.747C14.6953 17.5017 14.8594 18.2892 15.0562 19.0767C14.2687 19.3064 13.514 19.5361 12.7922 19.8314C8.6906 21.4064 6.45935 23.572 6.45935 26.0001C6.45935 28.4283 8.72341 30.5939 12.7922 32.1689C13.514 32.4314 14.2687 32.6939 15.0562 32.9236C14.8594 33.7111 14.6953 34.4986 14.564 35.2533C13.875 39.5845 14.6297 42.6361 16.7297 43.8173C17.3531 44.1783 18.0422 44.3423 18.8297 44.3423C21.1593 44.3423 24.0797 42.6361 27 39.7814C29.9531 42.6361 32.8734 44.3423 35.1703 44.3423C35.9578 44.3423 36.6469 44.1783 37.2703 43.8173C39.3703 42.6033 40.125 39.5517 39.4359 35.2533C39.3047 34.4986 39.1406 33.7111 38.9437 32.9236C39.7312 32.6939 40.4859 32.4642 41.2078 32.1689C45.3094 30.5939 47.5406 28.4283 47.5406 26.0001C47.5406 23.572 45.3094 21.4064 41.2078 19.8314ZM36.3515 9.82358C37.6968 10.6111 38.1562 13.0392 37.5984 16.4845C37.5 17.1736 37.3359 17.8955 37.139 18.6501C35.4328 18.2564 33.6281 17.9939 31.725 17.8298C30.6094 16.2548 29.4609 14.8439 28.3125 13.5642C30.7406 11.1689 33.2015 9.52827 35.2031 9.52827C35.6297 9.52827 36.0234 9.62671 36.3515 9.82358ZM32.6765 29.2814C32.0859 30.3314 31.3968 31.3814 30.675 32.4314C29.4609 32.5298 28.2469 32.5626 27 32.5626C25.7203 32.5626 24.5062 32.5298 23.325 32.4314C22.6031 31.3814 21.9468 30.3314 21.3562 29.2814C20.7328 28.1986 20.1422 27.083 19.6172 26.0001C20.1422 24.9173 20.7328 23.8017 21.3562 22.7189C21.9468 21.6689 22.6359 20.6189 23.3578 19.5689C24.5718 19.4705 25.7859 19.4376 27.0328 19.4376C28.3125 19.4376 29.5265 19.4705 30.7078 19.5689C31.4297 20.6189 32.0859 21.6689 32.6765 22.7189C33.3 23.8017 33.8906 24.9173 34.4156 26.0001C33.8578 27.083 33.3 28.1658 32.6765 29.2814ZM35.4 28.1986C35.8922 29.347 36.2859 30.4626 36.6469 31.5783C35.5312 31.8408 34.35 32.0376 33.1031 32.2017C33.4968 31.5783 33.9234 30.922 34.2843 30.233C34.6781 29.5439 35.039 28.8548 35.4 28.1986ZM27 37.0908C26.2125 36.2376 25.4578 35.3189 24.7359 34.3673C25.4906 34.4001 26.2453 34.433 27 34.433C27.7547 34.433 28.5093 34.4001 29.264 34.3673C28.5422 35.3189 27.7875 36.2376 27 37.0908ZM20.8969 32.1689C19.65 32.0048 18.4687 31.808 17.3531 31.5455C17.714 30.4626 18.1078 29.3142 18.6 28.1658C18.9609 28.822 19.3218 29.5111 19.7156 30.1673C20.1094 30.8892 20.5031 31.5126 20.8969 32.1689ZM18.6 23.8017C18.1078 22.6533 17.714 21.5376 17.3531 20.422C18.4687 20.1595 19.65 19.9626 20.8969 19.7986C20.5031 20.422 20.0765 21.0783 19.7156 21.7673C19.3218 22.4564 18.9609 23.1455 18.6 23.8017ZM27 14.9095C27.7875 15.7626 28.5422 16.6814 29.264 17.633C28.5093 17.6001 27.7547 17.5673 27 17.5673C26.2453 17.5673 25.4906 17.6001 24.7359 17.633C25.4578 16.6814 26.2125 15.7626 27 14.9095ZM34.2843 21.8001L33.1031 19.8314C34.35 19.9955 35.5312 20.1923 36.6469 20.4548C36.2859 21.5376 35.8922 22.6861 35.4 23.8345C35.039 23.1455 34.6781 22.4564 34.2843 21.8001ZM16.4015 16.4845C15.8437 13.0392 16.3031 10.6111 17.6484 9.82358C17.9765 9.62671 18.3703 9.52827 18.7969 9.52827C20.7656 9.52827 23.2265 11.1361 25.6875 13.5642C24.539 14.8111 23.3906 16.2548 22.275 17.8298C20.3718 17.9939 18.5672 18.2892 16.8609 18.6501C16.664 17.8955 16.5328 17.1736 16.4015 16.4845ZM8.29685 26.0001C8.29685 24.458 10.1672 22.8173 13.4484 21.6033C14.1047 21.3408 14.8265 21.1111 15.5484 20.9142C16.0734 22.5548 16.7297 24.2939 17.5172 26.033C16.7297 27.772 16.0406 29.4783 15.5484 31.1189C11.0203 29.8064 8.29685 27.8376 8.29685 26.0001ZM17.6484 42.1767C16.3031 41.3892 15.8437 38.9611 16.4015 35.5158C16.5 34.8267 16.664 34.1048 16.8609 33.3501C18.5672 33.7439 20.3718 34.0064 22.275 34.1705C23.3906 35.7455 24.539 37.1564 25.6875 38.4361C23.2593 40.8314 20.7984 42.472 18.7969 42.472C18.3703 42.472 17.9765 42.3736 17.6484 42.1767ZM37.5984 35.5158C38.1562 38.9611 37.6968 41.3892 36.3515 42.1767C36.0234 42.3736 35.6297 42.472 35.2031 42.472C33.2344 42.472 30.7734 40.8642 28.3125 38.4361C29.4609 37.1892 30.6094 35.7455 31.725 34.1705C33.6281 34.0064 35.4328 33.7111 37.139 33.3501C37.3359 34.1048 37.4672 34.8267 37.5984 35.5158ZM40.5515 30.397C39.8953 30.6595 39.1734 30.8892 38.4515 31.0861C37.9265 29.4455 37.2703 27.7064 36.4828 25.9673C37.2703 24.2283 37.9594 22.522 38.4515 20.8814C42.9797 22.1939 45.7031 24.1626 45.7031 26.0001C45.7031 27.5423 43.8 29.183 40.5515 30.397Z" fill="#61DAFB"/>
</svg>
