<svg width="92" height="92" viewBox="0 0 92 92" fill="none" xmlns="http://www.w3.org/2000/svg">
<path fill-rule="evenodd" clip-rule="evenodd" d="M46.0033 21C31.7722 21 20.2457 32.4705 20.2457 46.6323C20.2457 57.9747 27.6188 67.5547 37.8575 70.951C39.1453 71.1753 39.6283 70.4063 39.6283 69.7335C39.6283 69.1247 39.5961 67.1062 39.5961 64.9595C33.1245 66.145 31.4503 63.3895 30.9351 61.9477C30.6453 61.2107 29.3897 58.9359 28.295 58.3271C27.3935 57.8465 26.1056 56.661 28.2628 56.629C30.2912 56.5969 31.74 58.4873 32.223 59.2563C34.5412 63.1332 38.2438 62.0438 39.7249 61.3709C39.9503 59.7048 40.6264 58.5834 41.3669 57.9426C35.6359 57.3018 29.6472 55.091 29.6472 45.2866C29.6472 42.4991 30.6453 40.1922 32.2874 38.398C32.0298 37.7571 31.1283 35.1298 32.545 31.6054C32.545 31.6054 34.7022 30.9325 39.6283 34.2327C41.6889 33.656 43.8783 33.3676 46.0677 33.3676C48.2571 33.3676 50.4465 33.656 52.5071 34.2327C57.4332 30.9005 59.5904 31.6054 59.5904 31.6054C61.0071 35.1298 60.1056 37.7571 59.848 38.398C61.49 40.1922 62.4881 42.4671 62.4881 45.2866C62.4881 55.1231 56.4673 57.3018 50.7363 57.9426C51.67 58.7436 52.4749 60.2816 52.4749 62.6846C52.4749 66.1129 52.4427 68.8684 52.4427 69.7335C52.4427 70.4063 52.9257 71.2074 54.2135 70.951C64.3878 67.5547 71.7609 57.9426 71.7609 46.6323C71.7609 32.4705 60.2344 21 46.0033 21Z" fill="#D5FF3F"/>
</svg>
