<svg width="92" height="92" viewBox="0 0 92 92" fill="none" xmlns="http://www.w3.org/2000/svg">
<path fill-rule="evenodd" clip-rule="evenodd" d="M72.2725 31.9544C72.6576 30.745 72.2725 29.8564 70.4398 29.8564H64.3795C62.8386 29.8564 62.1282 30.6241 61.7429 31.4705C61.7429 31.4705 58.661 38.5449 54.2951 43.1401C52.8826 44.4703 52.2405 44.8935 51.47 44.8935C51.0849 44.8935 50.5272 44.4703 50.5272 43.2611V31.9544C50.5272 30.5032 50.08 29.8564 48.7958 29.8564H39.2724C38.3095 29.8564 37.7303 30.53 37.7303 31.1683C37.7303 32.544 39.9132 32.8612 40.1382 36.731V45.1355C40.1382 46.9781 39.7848 47.3122 39.0144 47.3122C36.9599 47.3122 31.9623 40.2063 28.9983 32.0752C28.4175 30.4948 27.8349 29.8564 26.286 29.8564H20.2257C18.4941 29.8564 18.1478 30.6241 18.1478 31.4705C18.1478 32.9822 20.2024 40.4798 27.7143 50.3958C32.7222 57.1677 39.778 60.8386 46.1985 60.8386C50.0508 60.8386 50.5273 60.0233 50.5273 58.6189V53.5007C50.5273 51.8701 50.8923 51.5446 52.1122 51.5446C53.011 51.5446 54.5519 51.9679 58.1474 55.2329C62.2565 59.1026 62.934 60.8386 65.2453 60.8386H71.3056C73.0371 60.8386 73.9029 60.0233 73.4034 58.4143C72.8569 56.8107 70.895 54.484 68.2918 51.726C66.8792 50.154 64.7605 48.461 64.1184 47.6144C63.2196 46.5262 63.4764 46.0423 64.1184 45.075C64.1184 45.075 71.5021 35.2798 72.2725 31.9544Z" fill="#D5FF3F"/>
</svg>
