<svg width="93" height="92" viewBox="0 0 93 92" fill="none" xmlns="http://www.w3.org/2000/svg">
<path d="M71.8089 33.1872C71.2111 30.9398 69.4426 29.1668 67.1926 28.5592C63.1244 27.4688 46.8014 27.4688 46.8014 27.4688C46.8014 27.4688 30.4868 27.4688 26.4102 28.5592C24.1685 29.1585 22.4 30.9315 21.7939 33.1872C20.7063 37.2659 20.7063 45.7811 20.7063 45.7811C20.7063 45.7811 20.7063 54.2964 21.7939 58.375C22.3917 60.6224 24.1602 62.3954 26.4102 63.0031C30.4868 64.0935 46.8014 64.0935 46.8014 64.0935C46.8014 64.0935 63.1244 64.0935 67.1926 63.0031C69.4343 62.4037 71.2028 60.6308 71.8089 58.375C72.8965 54.2964 72.8965 45.7811 72.8965 45.7811C72.8965 45.7811 72.8965 37.2659 71.8089 33.1872Z" fill="#D5FF3F"/>
<path d="M41.5874 53.6305L55.1455 45.7811L41.5874 37.9318V53.6305Z" fill="#161B22"/>
</svg>
